<svg id="Layer_1" enable-background="new 0 0 511.21 511.21" height="512" viewBox="0 0 511.21 511.21" width="512" xmlns="http://www.w3.org/2000/svg"><g><path d="m270.605 91.21v70h-15l-7.5-35 7.5-35z" fill="#adcfff"/><path d="m240.605 91.21h15v70h-15z" fill="#f5f5f8"/><path d="m377.595 301.21h-121.99l-22.5-75 22.5-75h48.1c30.095 0 55.807 21.564 61.361 50.787 0 0-29.251 13.678-29.085 15.003l32.962 15z" fill="#989eec"/><path d="m255.605 151.21v150h-121.99l8.651-69.21 29.933-18.384c.166-1.325-26.055-11.619-26.055-11.619 5.554-29.223 31.266-50.787 61.361-50.787z" fill="#adcfff"/><path d="m435.605 271.21v55.002l-6.653 16.374 6.653 13.627v84.631h-180l-31.188-79.634 31.188-90z" fill="#6c67d2"/><path d="m255.605 271.21v169.634h-180v-84.593l7.901-12.477-7.901-17.539v-55.025z" fill="#8bbbff"/><path d="m300.605 74.42c0 24.82-20.19 45-45 45l-15-66.637 15-52.783 11.37 13.21c7.89 9.17 33.63 40.68 33.63 61.21z" fill="#df6666"/><path d="m255.605 0v119.42c-24.81 0-45-20.18-45-45 0-20.53 25.74-52.04 33.63-61.21z" fill="#e69768"/><path d="m465.605 436.21-18.29 75h-191.71l-31.188-37.5 31.188-37.5z" fill="#ff7c48"/><path d="m255.605 436.21v75h-191.71l-18.29-75z" fill="#ffb555"/><path d="m435.605 356.213c-9.905.108-14.317 3.271-20.94 8.007-8.48 6.08-19.02 13.63-38.95 13.63-19.92 0-30.47-7.55-38.94-13.63-6.74-4.82-11.19-8.01-21.48-8.01-10.28 0-14.73 3.19-21.47 8.01-8.37 6.01-18.76 13.45-38.22 13.62v-30c9.77-.14 14.17-3.29 20.75-8 8.47-6.07 19.02-13.63 38.94-13.63 19.93 0 30.47 7.56 38.95 13.63 6.74 4.82 11.19 8.01 21.47 8.01 10.29 0 14.74-3.19 21.48-8.01 8.395-6.016 18.832-13.495 38.41-13.628z" fill="#adcfff"/><path d="m255.605 347.84v30c-.24.01-.48.01-.72.01-19.92 0-30.47-7.55-38.95-13.63-6.73-4.82-11.18-8.01-21.47-8.01-10.28 0-14.73 3.19-21.47 8.01-8.47 6.08-19.02 13.63-38.94 13.63s-30.47-7.55-38.94-13.63c-6.296-4.502-10.593-7.582-19.51-7.969v-30.016c18.661.477 28.792 7.737 36.98 13.605 6.74 4.82 11.19 8.01 21.47 8.01 10.29 0 14.74-3.19 21.47-8.01 8.48-6.07 19.02-13.63 38.94-13.63 19.93 0 30.47 7.56 38.95 13.63 6.73 4.82 11.18 8.01 21.47 8.01.24 0 .48 0 .72-.01z" fill="#f5f5f8"/><path d="m510.615 450.88-255.01.17-22.5-10.206 22.5-19.804 254.99-.16z" fill="#ffb555"/><path d="m255.605 421.04v30.01l-254.99.16-.02-30z" fill="#fd5"/><path d="m145.525 205.93-3.259 26.07h113.339v-30h-109.446c-.247 1.297-.468 2.604-.634 3.93z" fill="#f5f5f8"/><path d="m365.685 205.93c-.166-1.326-.387-2.633-.634-3.93h-109.446v30h113.339z" fill="#adcfff"/></g></svg>