<svg id="Capa_1" enable-background="new 0 0 510 510" height="512" viewBox="0 0 510 510" width="512" xmlns="http://www.w3.org/2000/svg"><g><path d="m432.93 361.05-4.25 9.44c-17.36 38.53-45.73 71.34-82.06 94.88-15.78 10.23-32.61 18.4-50.14 24.39v-97.77c.4.01.79.01 1.19.01 36.83 0 70.12-14.38 101.75-43.96l10.6-9.9z" fill="#ff9e22"/><path d="m296.48 391.99v97.77c-23.53 8.08-48.31 12.24-73.48 12.24-59.57 0-115.57-23.2-157.68-65.32-42.12-42.11-65.32-98.11-65.32-157.68s23.2-115.57 65.32-157.68c42.11-42.12 98.11-65.32 157.68-65.32 2.16 0 4.37-.07 6.7-.15 5.15-.17 10.48-.35 16.15.23l13.48 1.37v29.74l-10.31 3.39c-64.01 21.04-107.02 79.62-107.02 145.75 0 85.44 69.19 155.02 154.48 155.66z" fill="#fd5"/><path d="m368.96 260.81c0 14.44-5.62 28.01-15.83 38.22l-56.65 56.65v-130.12c7.86-6.2 17.51-9.56 27.68-9.56 24.7 0 44.8 20.1 44.8 44.81z" fill="#ff80a9"/><path d="m296.48 225.56v130.12l-56.65-56.65c-10.21-10.21-15.83-23.78-15.83-38.22 0-24.71 20.1-44.81 44.81-44.81 10.16 0 19.81 3.36 27.67 9.56z" fill="#eda1e2"/><path d="m510 69.09c0 20.14-7.84 39.08-22.08 53.32l-81.81 81.8v-178.72c11.49-11.28 26.67-17.49 42.8-17.49 33.68 0 61.09 27.41 61.09 61.09z" fill="#d00050"/><path d="m406.11 25.49v178.72l-81.8-81.8c-14.24-14.24-22.09-33.18-22.09-53.32 0-33.68 27.41-61.09 61.1-61.09 16.12 0 31.3 6.21 42.79 17.49z" fill="#ff6379"/></g></svg>