<svg id="Capa_1" enable-background="new 0 0 512 512" height="512" viewBox="0 0 512 512" width="512" xmlns="http://www.w3.org/2000/svg"><g><path d="m512 436v15h-77.901l-179.099-90-179.399 90h-75.601v-15c0-140.7 114.3-255 255-255s257 114.3 257 255z" fill="#66e6ff"/><path d="m434.099 451h77.901v-15c0-140.7-116.3-255-257-255v180z" fill="#45cbe6"/><g id="Rainbow_1_"><path d="m434.099 451h-60l-119.099-90-119.099 90h-60.3c-8.401-106.199 75.3-195 179.399-195s188.101 89.099 179.099 195z" fill="#ffe566"/><path d="m374.099 451h60c9.001-105.901-75-195-179.099-195v105z" fill="#ffc24d"/><g><path d="m374.099 451h-74.099v-15c0-24.901-20.099-45-45-45s-45 20.099-45 45v15h-74.099c-9.002-72.9 47.999-135 119.099-135s127.8 62.1 119.099 135z" fill="#ff80aa"/></g><path d="m300 436v15h74.099c8.701-72.9-47.999-135-119.099-135v75c24.901 0 45 20.099 45 45z" fill="#f24965"/><g><path d="m154.572 72.241h30.025v90.004h-30.025z" fill="#f9f3ed" transform="matrix(.966 -.259 .259 .966 -24.563 47.878)"/></g><g><path d="m75.01 105.215h29.979v90.002h-29.979z" fill="#f9f3ed" transform="matrix(.866 -.5 .5 .866 -63.05 65.123)"/></g><g><path d="m295.413 102.23h90.004v30.025h-90.004z" fill="#f0e3d8" transform="matrix(.259 -.966 .966 .259 139.137 415.765)"/></g><g><path d="m374.999 135.227h90.002v29.979h-90.002z" fill="#f0e3d8" transform="matrix(.5 -.866 .866 .5 79.795 438.704)"/></g><g><path d="m240 61h30v90h-30z" fill="#f9f3ed"/></g><path d="m255 61h15v90h-15z" fill="#f0e3d8"/></g></g></svg>