<svg id="Capa_1" enable-background="new 0 0 512 512" height="512" viewBox="0 0 512 512" width="512" xmlns="http://www.w3.org/2000/svg"><g><g><g><path d="m312.097 267.206h-217.753c-52.022 0-94.344-42.322-94.344-94.343 0-49.725 38.67-90.589 87.517-94.099 3.136-43.957 39.901-78.764 84.642-78.764 22.303 0 43.383 8.765 59.358 24.679 12.459 12.412 20.56 27.926 23.536 44.715 27.762 3.111 50.345 23.602 56.58 50.308 40.648.149 73.916 32.927 74.214 73.195.147 19.809-7.455 38.459-21.406 52.512-13.951 14.057-32.541 21.797-52.344 21.797z" fill="#d6e8fd"/></g></g><g><g><path d="m311.633 119.703c-6.235-26.706-28.818-47.197-56.58-50.308-2.976-16.789-11.077-32.303-23.536-44.715-15.975-15.915-37.055-24.68-59.358-24.68-.105 0-.208.007-.312.008v267.198h140.25c19.803 0 38.393-7.74 52.344-21.796 13.951-14.054 21.553-32.703 21.406-52.512-.299-40.269-33.566-73.046-74.214-73.195z" fill="#bcdefd"/></g></g><g><g><path d="m438.248 307.285h-217.753c-52.021 0-94.344-42.322-94.344-94.344 0-49.725 38.67-90.589 87.517-94.099 3.136-43.956 39.901-78.763 84.643-78.763 22.303 0 43.383 8.765 59.358 24.679 12.459 12.412 20.56 27.926 23.536 44.715 27.762 3.111 50.345 23.602 56.58 50.308 40.648.149 73.916 32.927 74.214 73.195.147 19.809-7.455 38.459-21.406 52.512-13.952 14.057-32.542 21.797-52.345 21.797z" fill="#edf5ff"/></g></g><g><path d="m437.784 159.782c-6.235-26.706-28.818-47.197-56.58-50.308-2.976-16.789-11.076-32.303-23.536-44.716-15.975-15.915-37.055-24.679-59.358-24.679-.321 0-.638.02-.959.023v267.183h140.897c19.803 0 38.393-7.74 52.344-21.796 13.951-14.054 21.553-32.703 21.406-52.512-.299-40.269-33.566-73.047-74.214-73.195z" fill="#d6e8fd"/></g><path d="m299.663 454.223h-29.543v-29.873h29.543v-29.873h-29.543v-29.873h29.543v-29.874h-29.543v-27.439h29.543v-29.873h-29.543v-43.136h-29.874v277.718h29.874v-27.904h29.543z" fill="#fed843"/><g><path d="m325.385 234.282v43.136h-28.034v29.873h28.034v27.439h-28.034v29.874h28.034v29.873h-28.034v29.873h28.034v29.873h-28.034v29.873h28.034v27.904h29.873v-277.718z" fill="#fabe2c"/></g></g></svg>